<?xml version="1.0" encoding="UTF-8"?>
<svg width="25px" height="25px" viewBox="0 0 25 25" version="1.1" xmlns="http://www.w3.org/2000/svg" xmlns:xlink="http://www.w3.org/1999/xlink">
    <title>分享@3x</title>
    <g id="控件" stroke="none" stroke-width="1" fill-rule="evenodd">
        <g id="上滑導航欄" transform="translate(-335.000000, -29.000000)">
            <g id="分享">
                <g transform="translate(335.000000, 29.000000)">
                    <path d="M15.97375,3 C17.78625,3 19.255,4.46916667 19.255,6.28125 C19.255,8.09333333 17.78625,9.5625 15.97375,9.5625 C15.1512647,9.5625 14.3994256,9.25982885 13.8235462,8.75980023 L8.40767075,11.8448742 C8.50822455,12.159833 8.5625,12.4954573 8.5625,12.84375 C8.5625,13.0428371 8.54477439,13.2377768 8.51081572,13.4270782 L15.3138627,17.4861945 C15.9130107,16.8410782 16.7686531,16.4375 17.71875,16.4375 C19.53125,16.4375 21,17.90625 21,19.71875 C21,21.53125 19.53125,23 17.71875,23 C15.90625,23 14.4375,21.53125 14.4375,19.71875 C14.4375,19.3058712 14.5137144,18.9108298 14.6528452,18.5469239 L8.04978891,14.6058098 C7.46720761,15.5192902 6.4449379,16.125 5.28125,16.125 C3.46916667,16.125 2,14.65625 2,12.84375 C2,11.0316667 3.46916667,9.5625 5.28125,9.5625 C6.29710098,9.5625 7.20518335,10.0242158 7.80707489,10.7492252 L13.0465744,7.76537257 C12.8201382,7.3196838 12.6925,6.81536286 12.6925,6.28125 C12.6925,4.46916667 14.1616667,3 15.97375,3 Z M17.71875,17.6875 C16.59875,17.6875 15.6875,18.5983333 15.6875,19.71875 C15.6875,20.83875 16.59875,21.75 17.71875,21.75 C18.83875,21.75 19.75,20.83875 19.75,19.71875 C19.75,18.5983333 18.83875,17.6875 17.71875,17.6875 Z M5.28125,10.8125 C4.16125,10.8125 3.25,11.72375 3.25,12.84375 C3.25,13.96375 4.16125,14.875 5.28125,14.875 C6.40125,14.875 7.3125,13.96375 7.3125,12.84375 C7.3125,11.72375 6.40125,10.8125 5.28125,10.8125 Z M15.97375,4.25 C14.85375,4.25 13.9429167,5.16125 13.9429167,6.28125 C13.9429167,7.40125 14.85375,8.3125 15.97375,8.3125 C17.0941667,8.3125 18.005,7.40125 18.005,6.28125 C18.005,5.16125 17.0941667,4.25 15.97375,4.25 Z" id="形状结合"></path>
                </g>
            </g>
        </g>
    </g>
</svg>