<?xml version="1.0" standalone="no"?><!DOCTYPE svg PUBLIC "-//W3C//DTD SVG 1.1//EN" "http://www.w3.org/Graphics/SVG/1.1/DTD/svg11.dtd"><svg t="1572512099084" class="icon" viewBox="0 0 1030 1024" version="1.1" xmlns="http://www.w3.org/2000/svg" p-id="5408" xmlns:xlink="http://www.w3.org/1999/xlink" width="201.171875" height="200"><defs><style type="text/css"></style></defs><path d="M603.428571 24.380952c221.866667 0 402.285714 180.419048 402.285715 402.285715v170.666666c0 221.866667-180.419048 402.285714-402.285715 402.285715h-170.666666c-221.866667 0-402.285714-180.419048-402.285715-402.285715V426.666667c0-221.866667 180.419048-402.285714 402.285715-402.285715h170.666666m0-24.380952h-170.666666C197.485714 0 6.095238 191.390476 6.095238 426.666667v170.666666c0 235.27619 191.390476 426.666667 426.666667 426.666667h170.666666c235.27619 0 426.666667-191.390476 426.666667-426.666667V426.666667c0-235.27619-191.390476-426.666667-426.666667-426.666667z" p-id="5409"></path><path d="M693.638095 207.238095h-329.142857c-19.504762 0-35.352381 15.847619-35.352381 35.352381V780.190476c0 19.504762 15.847619 35.352381 35.352381 35.352381h329.142857c19.504762 0 35.352381-15.847619 35.352381-35.352381V242.590476c0-19.504762-15.847619-35.352381-35.352381-35.352381zM357.180952 444.952381h95.085715v95.085714h-95.085715v-95.085714z m219.428572 95.085714h-95.085714v-95.085714h95.085714v95.085714z m0 29.257143v95.085714h-95.085714v-95.085714h95.085714z m-219.428572 0h95.085715v95.085714h-95.085715v-95.085714z m0 219.428572v-95.085715h95.085715v95.085715h-95.085715z m124.342858 0v-95.085715h95.085714v95.085715h-95.085714z m219.428571 0h-95.085714v-95.085715h95.085714v95.085715z m0-124.342858h-95.085714v-95.085714h95.085714v95.085714z m0-124.342857h-95.085714v-95.085714h95.085714v95.085714z m0-123.123809H357.180952V235.27619h342.552381v181.638096z" p-id="5410"></path><path d="M386.438095 359.619048h67.047619v28.038095h-67.047619z" p-id="5411"></path></svg>