<?xml version="1.0" standalone="no"?><!DOCTYPE svg PUBLIC "-//W3C//DTD SVG 1.1//EN" "http://www.w3.org/Graphics/SVG/1.1/DTD/svg11.dtd"><svg t="1572517905747" class="icon" viewBox="0 0 1024 1024" version="1.1" xmlns="http://www.w3.org/2000/svg" p-id="2237" xmlns:xlink="http://www.w3.org/1999/xlink" width="200" height="200"><defs><style type="text/css"></style></defs><path d="M597.333333 0H426.666667C191.390476 0 0 191.390476 0 426.666667v170.666666c0 235.27619 191.390476 426.666667 426.666667 426.666667h170.666666c235.27619 0 426.666667-191.390476 426.666667-426.666667V426.666667C1024 191.390476 832.609524 0 597.333333 0zM471.771429 263.314286c0-4.87619 3.657143-9.752381 8.533333-10.971429L524.190476 243.809524c7.314286-1.219048 13.409524 3.657143 13.409524 10.971428v107.276191c0 6.095238-6.095238 12.190476-12.190476 10.971428l-43.885714-4.87619c-6.095238 0-10.971429-4.87619-9.752381-12.190476v-92.647619z m93.866666 173.104762c-75.580952 12.190476-145.066667 37.790476-141.409524 118.247619 13.409524 110.933333 236.495238 226.742857 303.542858 226.742857H220.647619c-1.219048 0-3.657143-2.438095-3.657143-3.657143-13.409524-54.857143-37.790476-187.733333 26.819048-282.819048 65.828571-96.304762 201.142857-112.152381 321.828571-108.495238 2.438095 0 4.87619-1.219048 4.876191-3.657143V247.466667c0-4.87619 4.87619-9.752381 9.752381-10.971429l102.4-21.942857c7.314286-1.219048 13.409524 3.657143 13.409523 10.971429v162.133333c0 1.219048 1.219048 3.657143 3.657143 3.657143 7.314286 0 106.057143 4.87619 112.152381 8.533333-10.971429-1.219048-106.057143 18.285714-113.371428 20.72381-1.219048 0-2.438095 2.438095-2.438096 3.657142v274.285715c0 8.533333-8.533333 14.628571-15.847619 10.971428l-102.4-45.104762c-4.87619-2.438095-7.314286-6.095238-7.314285-10.971428V440.07619c0-2.438095-2.438095-3.657143-4.876191-3.657142z m-26.819047 45.104762v137.75238c0 8.533333-10.971429 13.409524-18.285715 8.533334l-43.885714-29.257143c-3.657143-1.219048-4.87619-4.87619-4.87619-8.533333v-84.114286c0-3.657143 2.438095-7.314286 6.095238-9.752381l43.885714-24.380952c7.314286-3.657143 15.847619 1.219048 17.066667 9.752381z" p-id="2238"></path></svg>