<?xml version="1.0" standalone="no"?><!DOCTYPE svg PUBLIC "-//W3C//DTD SVG 1.1//EN" "http://www.w3.org/Graphics/SVG/1.1/DTD/svg11.dtd"><svg t="1572517833666" class="icon" viewBox="0 0 1024 1024" version="1.1" xmlns="http://www.w3.org/2000/svg" p-id="1693" xmlns:xlink="http://www.w3.org/1999/xlink" width="200" height="200"><defs><style type="text/css"></style></defs><path d="M351.085714 292.571429h359.619048v45.104761H351.085714zM531.504762 499.809524h180.419048v45.104762H531.504762zM351.085714 391.314286h135.314286v260.87619H351.085714zM531.504762 607.085714h180.419048v45.104762H531.504762z" p-id="1694"></path><path d="M597.333333 0H426.666667C191.390476 0 0 191.390476 0 426.666667v170.666666c0 235.27619 191.390476 426.666667 426.666667 426.666667h170.666666c235.27619 0 426.666667-191.390476 426.666667-426.666667V426.666667C1024 191.390476 832.609524 0 597.333333 0z m171.885715 805.790476h-45.104762L707.047619 778.971429c-13.409524-20.72381-43.885714-20.72381-57.295238 0l-17.066667 26.819047h-53.638095l-17.066667-26.819047c-13.409524-20.72381-43.885714-20.72381-57.295238 0L487.619048 805.790476h-53.638096l-17.066666-26.819047c-13.409524-20.72381-43.885714-20.72381-57.295238 0l-17.066667 26.819047h-45.104762V231.619048c0-6.095238 4.87619-10.971429 10.971429-10.971429h446.171428c6.095238 0 10.971429 4.87619 14.628572 10.971429v574.171428z" p-id="1695"></path><path d="M531.504762 391.314286h180.419048v45.104762H531.504762z" p-id="1696"></path></svg>