<?xml version="1.0" standalone="no"?><!DOCTYPE svg PUBLIC "-//W3C//DTD SVG 1.1//EN" "http://www.w3.org/Graphics/SVG/1.1/DTD/svg11.dtd"><svg t="1583921152875" class="icon" viewBox="0 0 1024 1024" version="1.1" xmlns="http://www.w3.org/2000/svg" p-id="4542" xmlns:xlink="http://www.w3.org/1999/xlink" width="400" height="400"><defs><style type="text/css"></style></defs><path d="M512 823.466667c-164.266667 0-315.733333-66.133333-426.666667-185.6l-64-68.266667c-27.733333-27.733333-27.733333-72.533333 0-102.4l64-68.266667C196.266667 279.466667 347.733333 213.333333 512 213.333333c164.266667 0 315.733333 66.133333 426.666667 185.6l64 68.266667c27.733333 27.733333 27.733333 72.533333 0 102.4l-64 68.266667c-110.933333 119.466667-262.4 185.6-426.666667 185.6zM130.133333 443.733333l-64 68.266667c-4.266667 4.266667-4.266667 10.666667 0 14.933333l64 68.266667c100.266667 106.666667 234.666667 164.266667 381.866667 164.266667 145.066667 0 281.6-57.6 381.866667-164.266667l64-68.266667c4.266667-4.266667 4.266667-10.666667 0-14.933333l-64-68.266667c-100.266667-106.666667-234.666667-164.266667-381.866667-164.266666s-281.6 57.6-381.866667 164.266666z" p-id="4543"></path><path d="M512 678.4c-87.466667 0-160-72.533333-160-160s72.533333-160 160-160 160 72.533333 160 160-72.533333 160-160 160z m0-256c-53.333333 0-96 42.666667-96 96s42.666667 96 96 96 96-42.666667 96-96-42.666667-96-96-96z" p-id="4544"></path></svg>