<?xml version="1.0" standalone="no"?><!DOCTYPE svg PUBLIC "-//W3C//DTD SVG 1.1//EN" "http://www.w3.org/Graphics/SVG/1.1/DTD/svg11.dtd"><svg t="1572512107307" class="icon" viewBox="0 0 1024 1024" version="1.1" xmlns="http://www.w3.org/2000/svg" p-id="5663" xmlns:xlink="http://www.w3.org/1999/xlink" width="200" height="200"><defs><style type="text/css"></style></defs><path d="M597.333333 24.380952c221.866667 0 402.285714 180.419048 402.285715 402.285715v170.666666c0 221.866667-180.419048 402.285714-402.285715 402.285715H426.666667C204.8 999.619048 24.380952 819.2 24.380952 597.333333V426.666667C24.380952 204.8 204.8 24.380952 426.666667 24.380952h170.666666m0-24.380952H426.666667C191.390476 0 0 191.390476 0 426.666667v170.666666c0 235.27619 191.390476 426.666667 426.666667 426.666667h170.666666c235.27619 0 426.666667-191.390476 426.666667-426.666667V426.666667C1024 191.390476 832.609524 0 597.333333 0z" p-id="5664"></path><path d="M540.038095 210.895238l-304.761905 305.980952h36.571429l266.971429-270.628571 270.628571 270.628571h35.352381z" p-id="5665"></path><path d="M742.4 785.066667H338.895238l-1.219048-269.409524h-24.380952v293.790476h453.485714V515.657143h-24.380952z" p-id="5666"></path><path d="M666.819048 507.12381L472.990476 700.952381 414.47619 642.438095 397.409524 658.285714l75.580952 75.580953L682.666667 524.190476z" p-id="5667"></path></svg>